<svg width="358" height="396" viewBox="0 0 358 396" fill="none" xmlns="http://www.w3.org/2000/svg">
<g clip-path="url(#clip0_3_10)">
<path d="M302.944 0.718029C267.781 51.1184 233.07 100.863 197.508 151.829H286.025C220.602 233.807 156.268 314.425 91.9349 395.039C91.536 394.895 91.1371 394.747 90.7382 394.604C93.3223 387.557 95.8089 380.471 98.5083 373.47C119.403 319.268 140.276 265.053 161.357 210.923C163.746 204.788 162.385 203.325 156.135 203.464C136.189 203.908 116.229 203.796 96.2832 204.128C91.3365 204.209 90.2373 203.248 92.2674 198.186C117.63 135.031 140.812 71.0182 164.996 7.39618C166.933 2.29781 169.176 -0.0314688 174.969 -5.27678e-05C216.049 0.21986 257.13 0.0448273 298.215 0.0313633C299.531 0.0313633 300.848 0.39938 302.949 0.713541L302.944 0.718029Z" fill="#F7F0FF"/>
<path d="M37.8802 106.599C43.3322 116.702 45.872 127.401 51.5411 136.714C57.4186 146.367 67.1968 150.644 77.9722 155.999C66.133 161.909 56.0933 168.534 50.7256 180.252C45.708 191.207 43.279 203.082 38.2569 214.702C30.9078 192.477 28.5763 166.976 0 158.382C27.056 151.017 31.7545 128.46 37.8802 106.599Z" fill="#F7F0FF"/>
<path d="M275.879 90.2449C304.801 84.8862 312.78 63.7073 317.332 38.8078C322.766 62.5269 329.158 84.7426 358 90.1102C328.701 95.0695 322.633 117.554 317.465 141.516C312.332 117.141 305.369 94.9662 275.879 90.2404V90.2449Z" fill="#F7F0FF"/>
<path d="M317.097 224.634C321.512 247.976 333.28 263.163 357.738 267.108C333.502 271.349 321.144 286.16 317.19 309.982C313.019 286.6 301.228 271.417 276.672 267.427C301.104 263.442 313.068 248.339 317.097 224.638V224.634Z" fill="#F7F0FF"/>
<path d="M80.2947 94.1225C68.092 74.9631 68.1142 41.5724 80.0598 19.6215C92.7013 34.7775 92.9894 73.4462 80.2947 94.1225Z" fill="#F7F0FF"/>
<path d="M64.6572 260.102C79.0717 256.023 82.3296 244.148 86.084 231.77C90.0422 244.143 93.4641 256.674 108.681 260.111C93.0607 264.007 90.3569 277.116 86.0396 289.306C82.8305 276.506 79.5859 264.258 64.6572 260.102Z" fill="#F7F0FF"/>
<path d="M217.006 308.955C217.773 303.259 220.371 299.916 226.151 300.113C231.634 300.302 234.36 303.789 234.213 308.779C234.063 313.864 230.57 317.123 225.539 317.055C220.583 316.988 217.388 314.053 217.002 308.955H217.006Z" fill="#F7F0FF"/>
</g>
<defs>
<clipPath id="clip0_3_10">
<rect width="358" height="395.034" fill="white"/>
</clipPath>
</defs>
</svg>
